<mxfile host="app.diagrams.net" agent="Mozilla/5.0 (Windows NT 10.0; Win64; x64) AppleWebKit/537.36 (KHTML, like Gecko) Chrome/128.0.0.0 Safari/537.36 Edg/128.0.0.0" version="24.7.12">
  <diagram name="Página-1" id="6TZZQjkgI0CEAvT-vihy">
    <mxGraphModel grid="1" page="1" gridSize="10" guides="1" tooltips="1" connect="1" arrows="1" fold="1" pageScale="1" pageWidth="827" pageHeight="1169" math="0" shadow="0">
      <root>
        <mxCell id="0" />
        <mxCell id="1" parent="0" />
        <mxCell id="9cvGfTx-hKqikB6WAJd7-1" value="" style="rounded=0;whiteSpace=wrap;html=1;" vertex="1" parent="1">
          <mxGeometry x="200" y="280" width="1030" height="1150" as="geometry" />
        </mxCell>
        <mxCell id="9cvGfTx-hKqikB6WAJd7-2" value="&lt;h1 style=&quot;margin-top: 0px;&quot;&gt;&lt;font style=&quot;font-size: 12px;&quot;&gt;Mantenedor de autos&lt;/font&gt;&lt;/h1&gt;" style="text;html=1;whiteSpace=wrap;overflow=hidden;rounded=0;align=center;verticalAlign=middle;" vertex="1" parent="1">
          <mxGeometry x="647" y="290" width="180" height="60" as="geometry" />
        </mxCell>
        <mxCell id="9cvGfTx-hKqikB6WAJd7-3" value="Conductor &lt;br&gt;&lt;div&gt;(registrado)&lt;/div&gt;" style="shape=umlActor;verticalLabelPosition=bottom;verticalAlign=top;html=1;outlineConnect=0;" vertex="1" parent="1">
          <mxGeometry x="30" y="930" width="30" height="60" as="geometry" />
        </mxCell>
        <mxCell id="9cvGfTx-hKqikB6WAJd7-4" value="Registrar Vehículo" style="ellipse;whiteSpace=wrap;html=1;" vertex="1" parent="1">
          <mxGeometry x="258" y="470" width="120" height="80" as="geometry" />
        </mxCell>
        <mxCell id="9cvGfTx-hKqikB6WAJd7-5" value="" style="endArrow=none;html=1;rounded=0;exitX=0.5;exitY=0.5;exitDx=0;exitDy=0;exitPerimeter=0;entryX=0;entryY=0.5;entryDx=0;entryDy=0;" edge="1" parent="1">
          <mxGeometry width="50" height="50" relative="1" as="geometry">
            <mxPoint x="100" y="226" as="sourcePoint" />
            <mxPoint x="267" y="160" as="targetPoint" />
          </mxGeometry>
        </mxCell>
        <mxCell id="9cvGfTx-hKqikB6WAJd7-6" value="" style="endArrow=classic;html=1;rounded=0;exitX=1;exitY=0;exitDx=0;exitDy=0;dashed=1;entryX=0;entryY=0.5;entryDx=0;entryDy=0;" edge="1" parent="1">
          <mxGeometry relative="1" as="geometry">
            <mxPoint x="255" y="229" as="sourcePoint" />
            <mxPoint x="378" y="180" as="targetPoint" />
          </mxGeometry>
        </mxCell>
        <mxCell id="9cvGfTx-hKqikB6WAJd7-7" value="&amp;lt;include&amp;gt;" style="edgeLabel;resizable=0;html=1;;align=center;verticalAlign=middle;" connectable="0" vertex="1" parent="9cvGfTx-hKqikB6WAJd7-6">
          <mxGeometry relative="1" as="geometry">
            <mxPoint x="4" as="offset" />
          </mxGeometry>
        </mxCell>
        <mxCell id="9cvGfTx-hKqikB6WAJd7-8" value="" style="endArrow=classic;html=1;rounded=0;dashed=1;" edge="1" parent="1">
          <mxGeometry relative="1" as="geometry">
            <mxPoint x="370" y="230" as="sourcePoint" />
            <mxPoint x="500" y="180" as="targetPoint" />
          </mxGeometry>
        </mxCell>
        <mxCell id="9cvGfTx-hKqikB6WAJd7-9" value="&amp;lt;extend&amp;gt;" style="edgeLabel;resizable=0;html=1;;align=center;verticalAlign=middle;" connectable="0" vertex="1" parent="9cvGfTx-hKqikB6WAJd7-8">
          <mxGeometry relative="1" as="geometry">
            <mxPoint x="4" as="offset" />
          </mxGeometry>
        </mxCell>
        <mxCell id="9cvGfTx-hKqikB6WAJd7-10" value="" style="endArrow=none;html=1;rounded=0;exitX=0.5;exitY=0.5;exitDx=0;exitDy=0;exitPerimeter=0;entryX=0;entryY=0.5;entryDx=0;entryDy=0;" edge="1" parent="1" source="9cvGfTx-hKqikB6WAJd7-3" target="9cvGfTx-hKqikB6WAJd7-4">
          <mxGeometry width="50" height="50" relative="1" as="geometry">
            <mxPoint x="130" y="396" as="sourcePoint" />
            <mxPoint x="297" y="330" as="targetPoint" />
          </mxGeometry>
        </mxCell>
        <mxCell id="9cvGfTx-hKqikB6WAJd7-11" value="" style="endArrow=classic;html=1;rounded=0;dashed=1;entryX=0;entryY=0.5;entryDx=0;entryDy=0;" edge="1" parent="1" target="9cvGfTx-hKqikB6WAJd7-13">
          <mxGeometry relative="1" as="geometry">
            <mxPoint x="378" y="510" as="sourcePoint" />
            <mxPoint x="573" y="450" as="targetPoint" />
          </mxGeometry>
        </mxCell>
        <mxCell id="9cvGfTx-hKqikB6WAJd7-12" value="&amp;lt;include&amp;gt;" style="edgeLabel;resizable=0;html=1;;align=center;verticalAlign=middle;" connectable="0" vertex="1" parent="9cvGfTx-hKqikB6WAJd7-11">
          <mxGeometry relative="1" as="geometry">
            <mxPoint x="4" as="offset" />
          </mxGeometry>
        </mxCell>
        <mxCell id="9cvGfTx-hKqikB6WAJd7-13" value="Completar información vehículo" style="ellipse;whiteSpace=wrap;html=1;" vertex="1" parent="1">
          <mxGeometry x="490" y="400" width="130" height="80" as="geometry" />
        </mxCell>
        <mxCell id="9cvGfTx-hKqikB6WAJd7-15" value="Validar información" style="ellipse;whiteSpace=wrap;html=1;" vertex="1" parent="1">
          <mxGeometry x="720" y="340" width="130" height="80" as="geometry" />
        </mxCell>
        <mxCell id="9cvGfTx-hKqikB6WAJd7-16" value="" style="endArrow=classic;html=1;rounded=0;exitX=1;exitY=0;exitDx=0;exitDy=0;dashed=1;entryX=0;entryY=0.5;entryDx=0;entryDy=0;" edge="1" parent="1" source="9cvGfTx-hKqikB6WAJd7-13" target="9cvGfTx-hKqikB6WAJd7-15">
          <mxGeometry relative="1" as="geometry">
            <mxPoint x="647" y="419" as="sourcePoint" />
            <mxPoint x="770" y="370" as="targetPoint" />
          </mxGeometry>
        </mxCell>
        <mxCell id="9cvGfTx-hKqikB6WAJd7-17" value="&amp;lt;include&amp;gt;" style="edgeLabel;resizable=0;html=1;;align=center;verticalAlign=middle;" connectable="0" vertex="1" parent="9cvGfTx-hKqikB6WAJd7-16">
          <mxGeometry relative="1" as="geometry">
            <mxPoint x="4" as="offset" />
          </mxGeometry>
        </mxCell>
        <mxCell id="9cvGfTx-hKqikB6WAJd7-18" value="Editar Perfil Vehículo" style="ellipse;whiteSpace=wrap;html=1;" vertex="1" parent="1">
          <mxGeometry x="550" y="890" width="120" height="80" as="geometry" />
        </mxCell>
        <mxCell id="9cvGfTx-hKqikB6WAJd7-20" value="" style="endArrow=classic;html=1;rounded=0;dashed=1;exitX=0;exitY=0;exitDx=0;exitDy=0;entryX=0.5;entryY=1;entryDx=0;entryDy=0;" edge="1" parent="1" source="9cvGfTx-hKqikB6WAJd7-25" target="9cvGfTx-hKqikB6WAJd7-4">
          <mxGeometry relative="1" as="geometry">
            <mxPoint x="380" y="240" as="sourcePoint" />
            <mxPoint x="510" y="190" as="targetPoint" />
          </mxGeometry>
        </mxCell>
        <mxCell id="9cvGfTx-hKqikB6WAJd7-21" value="&amp;lt;extend&amp;gt;" style="edgeLabel;resizable=0;html=1;;align=center;verticalAlign=middle;" connectable="0" vertex="1" parent="9cvGfTx-hKqikB6WAJd7-20">
          <mxGeometry relative="1" as="geometry">
            <mxPoint x="4" as="offset" />
          </mxGeometry>
        </mxCell>
        <mxCell id="9cvGfTx-hKqikB6WAJd7-22" value="Actualizar información del vehículo" style="ellipse;whiteSpace=wrap;html=1;" vertex="1" parent="1">
          <mxGeometry x="760" y="750" width="120" height="80" as="geometry" />
        </mxCell>
        <mxCell id="9cvGfTx-hKqikB6WAJd7-23" value="" style="endArrow=classic;html=1;rounded=0;exitX=1;exitY=0;exitDx=0;exitDy=0;dashed=1;entryX=0;entryY=0.5;entryDx=0;entryDy=0;" edge="1" parent="1" source="9cvGfTx-hKqikB6WAJd7-18" target="9cvGfTx-hKqikB6WAJd7-22">
          <mxGeometry relative="1" as="geometry">
            <mxPoint x="265" y="239" as="sourcePoint" />
            <mxPoint x="388" y="190" as="targetPoint" />
          </mxGeometry>
        </mxCell>
        <mxCell id="9cvGfTx-hKqikB6WAJd7-24" value="&amp;lt;include&amp;gt;" style="edgeLabel;resizable=0;html=1;;align=center;verticalAlign=middle;" connectable="0" vertex="1" parent="9cvGfTx-hKqikB6WAJd7-23">
          <mxGeometry relative="1" as="geometry">
            <mxPoint x="4" as="offset" />
          </mxGeometry>
        </mxCell>
        <mxCell id="9cvGfTx-hKqikB6WAJd7-25" value="Acceder Perfil Vehículo" style="ellipse;whiteSpace=wrap;html=1;" vertex="1" parent="1">
          <mxGeometry x="300" y="1010" width="120" height="80" as="geometry" />
        </mxCell>
        <mxCell id="9cvGfTx-hKqikB6WAJd7-28" value="" style="endArrow=none;html=1;rounded=0;exitX=0.5;exitY=0.5;exitDx=0;exitDy=0;exitPerimeter=0;entryX=0;entryY=0.5;entryDx=0;entryDy=0;" edge="1" parent="1" source="9cvGfTx-hKqikB6WAJd7-3" target="9cvGfTx-hKqikB6WAJd7-25">
          <mxGeometry width="50" height="50" relative="1" as="geometry">
            <mxPoint x="113" y="606" as="sourcePoint" />
            <mxPoint x="268" y="520" as="targetPoint" />
          </mxGeometry>
        </mxCell>
        <mxCell id="9cvGfTx-hKqikB6WAJd7-31" value="" style="endArrow=classic;html=1;rounded=0;exitX=1;exitY=0;exitDx=0;exitDy=0;dashed=1;entryX=0;entryY=0.5;entryDx=0;entryDy=0;" edge="1" parent="1" source="9cvGfTx-hKqikB6WAJd7-25" target="9cvGfTx-hKqikB6WAJd7-18">
          <mxGeometry relative="1" as="geometry">
            <mxPoint x="414" y="646" as="sourcePoint" />
            <mxPoint x="537" y="597" as="targetPoint" />
          </mxGeometry>
        </mxCell>
        <mxCell id="9cvGfTx-hKqikB6WAJd7-32" value="&amp;lt;include&amp;gt;" style="edgeLabel;resizable=0;html=1;;align=center;verticalAlign=middle;" connectable="0" vertex="1" parent="9cvGfTx-hKqikB6WAJd7-31">
          <mxGeometry relative="1" as="geometry">
            <mxPoint x="4" as="offset" />
          </mxGeometry>
        </mxCell>
        <mxCell id="9cvGfTx-hKqikB6WAJd7-33" value="Subir documento vehicular" style="ellipse;whiteSpace=wrap;html=1;" vertex="1" parent="1">
          <mxGeometry x="550" y="1070" width="120" height="80" as="geometry" />
        </mxCell>
        <mxCell id="9cvGfTx-hKqikB6WAJd7-34" value="" style="endArrow=classic;html=1;rounded=0;exitX=1;exitY=0.5;exitDx=0;exitDy=0;dashed=1;entryX=0;entryY=0.5;entryDx=0;entryDy=0;" edge="1" parent="1" source="9cvGfTx-hKqikB6WAJd7-25" target="9cvGfTx-hKqikB6WAJd7-33">
          <mxGeometry relative="1" as="geometry">
            <mxPoint x="400" y="730" as="sourcePoint" />
            <mxPoint x="510" y="680" as="targetPoint" />
          </mxGeometry>
        </mxCell>
        <mxCell id="9cvGfTx-hKqikB6WAJd7-35" value="&amp;lt;include&amp;gt;" style="edgeLabel;resizable=0;html=1;;align=center;verticalAlign=middle;" connectable="0" vertex="1" parent="9cvGfTx-hKqikB6WAJd7-34">
          <mxGeometry relative="1" as="geometry">
            <mxPoint x="4" as="offset" />
          </mxGeometry>
        </mxCell>
        <mxCell id="9cvGfTx-hKqikB6WAJd7-36" value="IA" style="shape=umlActor;verticalLabelPosition=bottom;verticalAlign=top;html=1;outlineConnect=0;" vertex="1" parent="1">
          <mxGeometry x="1350" y="930" width="30" height="60" as="geometry" />
        </mxCell>
        <mxCell id="9cvGfTx-hKqikB6WAJd7-38" value="Estudiar información" style="ellipse;whiteSpace=wrap;html=1;" vertex="1" parent="1">
          <mxGeometry x="980" y="730" width="120" height="80" as="geometry" />
        </mxCell>
        <mxCell id="9cvGfTx-hKqikB6WAJd7-39" value="" style="endArrow=classic;html=1;rounded=0;dashed=1;exitX=1;exitY=0;exitDx=0;exitDy=0;entryX=0.5;entryY=1;entryDx=0;entryDy=0;" edge="1" parent="1" source="9cvGfTx-hKqikB6WAJd7-33" target="9cvGfTx-hKqikB6WAJd7-42">
          <mxGeometry relative="1" as="geometry">
            <mxPoint x="789.9999999999998" y="1100" as="sourcePoint" />
            <mxPoint x="789.9999999999998" y="1000" as="targetPoint" />
          </mxGeometry>
        </mxCell>
        <mxCell id="9cvGfTx-hKqikB6WAJd7-40" value="&amp;lt;extend&amp;gt;" style="edgeLabel;resizable=0;html=1;;align=center;verticalAlign=middle;" connectable="0" vertex="1" parent="9cvGfTx-hKqikB6WAJd7-39">
          <mxGeometry relative="1" as="geometry">
            <mxPoint x="4" as="offset" />
          </mxGeometry>
        </mxCell>
        <mxCell id="9cvGfTx-hKqikB6WAJd7-41" value="" style="endArrow=none;html=1;rounded=0;exitX=0.5;exitY=0.5;exitDx=0;exitDy=0;exitPerimeter=0;entryX=1;entryY=0.5;entryDx=0;entryDy=0;" edge="1" parent="1" source="9cvGfTx-hKqikB6WAJd7-36" target="9cvGfTx-hKqikB6WAJd7-38">
          <mxGeometry width="50" height="50" relative="1" as="geometry">
            <mxPoint x="1060" y="226" as="sourcePoint" />
            <mxPoint x="1227" y="160" as="targetPoint" />
          </mxGeometry>
        </mxCell>
        <mxCell id="9cvGfTx-hKqikB6WAJd7-42" value="Actualizar documentación del vehículo" style="ellipse;whiteSpace=wrap;html=1;" vertex="1" parent="1">
          <mxGeometry x="760" y="870" width="120" height="80" as="geometry" />
        </mxCell>
        <mxCell id="9cvGfTx-hKqikB6WAJd7-43" value="" style="endArrow=classic;html=1;rounded=0;exitX=1;exitY=0.5;exitDx=0;exitDy=0;dashed=1;entryX=0;entryY=0.5;entryDx=0;entryDy=0;" edge="1" parent="1" source="9cvGfTx-hKqikB6WAJd7-18" target="9cvGfTx-hKqikB6WAJd7-42">
          <mxGeometry relative="1" as="geometry">
            <mxPoint x="612" y="652" as="sourcePoint" />
            <mxPoint x="687" y="610" as="targetPoint" />
          </mxGeometry>
        </mxCell>
        <mxCell id="9cvGfTx-hKqikB6WAJd7-44" value="&amp;lt;include&amp;gt;" style="edgeLabel;resizable=0;html=1;;align=center;verticalAlign=middle;" connectable="0" vertex="1" parent="9cvGfTx-hKqikB6WAJd7-43">
          <mxGeometry relative="1" as="geometry">
            <mxPoint x="4" as="offset" />
          </mxGeometry>
        </mxCell>
        <mxCell id="9cvGfTx-hKqikB6WAJd7-46" value="" style="endArrow=classic;html=1;rounded=0;dashed=1;exitX=0;exitY=0.5;exitDx=0;exitDy=0;entryX=1;entryY=0.5;entryDx=0;entryDy=0;" edge="1" parent="1" source="9cvGfTx-hKqikB6WAJd7-38" target="9cvGfTx-hKqikB6WAJd7-22">
          <mxGeometry relative="1" as="geometry">
            <mxPoint x="950" y="1162" as="sourcePoint" />
            <mxPoint x="950" y="690" as="targetPoint" />
          </mxGeometry>
        </mxCell>
        <mxCell id="9cvGfTx-hKqikB6WAJd7-47" value="&amp;lt;extend&amp;gt;" style="edgeLabel;resizable=0;html=1;;align=center;verticalAlign=middle;" connectable="0" vertex="1" parent="9cvGfTx-hKqikB6WAJd7-46">
          <mxGeometry relative="1" as="geometry">
            <mxPoint x="4" as="offset" />
          </mxGeometry>
        </mxCell>
        <mxCell id="9cvGfTx-hKqikB6WAJd7-48" value="" style="endArrow=classic;html=1;rounded=0;dashed=1;exitX=0;exitY=1;exitDx=0;exitDy=0;entryX=1;entryY=0.5;entryDx=0;entryDy=0;" edge="1" parent="1" source="9cvGfTx-hKqikB6WAJd7-38" target="9cvGfTx-hKqikB6WAJd7-42">
          <mxGeometry relative="1" as="geometry">
            <mxPoint x="1000" y="700" as="sourcePoint" />
            <mxPoint x="850" y="820" as="targetPoint" />
          </mxGeometry>
        </mxCell>
        <mxCell id="9cvGfTx-hKqikB6WAJd7-49" value="&amp;lt;extend&amp;gt;" style="edgeLabel;resizable=0;html=1;;align=center;verticalAlign=middle;" connectable="0" vertex="1" parent="9cvGfTx-hKqikB6WAJd7-48">
          <mxGeometry relative="1" as="geometry">
            <mxPoint x="4" as="offset" />
          </mxGeometry>
        </mxCell>
        <mxCell id="9cvGfTx-hKqikB6WAJd7-50" value="Generar recomendaciones personalizadas" style="ellipse;whiteSpace=wrap;html=1;" vertex="1" parent="1">
          <mxGeometry x="990" y="1070" width="120" height="80" as="geometry" />
        </mxCell>
        <mxCell id="9cvGfTx-hKqikB6WAJd7-51" value="" style="endArrow=classic;html=1;rounded=0;dashed=1;exitX=0.5;exitY=0;exitDx=0;exitDy=0;entryX=0.5;entryY=1;entryDx=0;entryDy=0;" edge="1" parent="1" source="9cvGfTx-hKqikB6WAJd7-50" target="9cvGfTx-hKqikB6WAJd7-38">
          <mxGeometry relative="1" as="geometry">
            <mxPoint x="1018" y="728" as="sourcePoint" />
            <mxPoint x="855" y="910" as="targetPoint" />
          </mxGeometry>
        </mxCell>
        <mxCell id="9cvGfTx-hKqikB6WAJd7-52" value="&amp;lt;extend&amp;gt;" style="edgeLabel;resizable=0;html=1;;align=center;verticalAlign=middle;" connectable="0" vertex="1" parent="9cvGfTx-hKqikB6WAJd7-51">
          <mxGeometry relative="1" as="geometry">
            <mxPoint x="4" as="offset" />
          </mxGeometry>
        </mxCell>
        <mxCell id="9cvGfTx-hKqikB6WAJd7-53" value="Ver información personalizada" style="ellipse;whiteSpace=wrap;html=1;" vertex="1" parent="1">
          <mxGeometry x="550" y="1250" width="120" height="80" as="geometry" />
        </mxCell>
        <mxCell id="9cvGfTx-hKqikB6WAJd7-54" value="" style="endArrow=classic;html=1;rounded=0;exitX=1;exitY=1;exitDx=0;exitDy=0;dashed=1;entryX=0;entryY=0;entryDx=0;entryDy=0;" edge="1" parent="1" source="9cvGfTx-hKqikB6WAJd7-25" target="9cvGfTx-hKqikB6WAJd7-53">
          <mxGeometry relative="1" as="geometry">
            <mxPoint x="378" y="1150" as="sourcePoint" />
            <mxPoint x="526" y="1182" as="targetPoint" />
          </mxGeometry>
        </mxCell>
        <mxCell id="9cvGfTx-hKqikB6WAJd7-55" value="&amp;lt;include&amp;gt;" style="edgeLabel;resizable=0;html=1;;align=center;verticalAlign=middle;" connectable="0" vertex="1" parent="9cvGfTx-hKqikB6WAJd7-54">
          <mxGeometry relative="1" as="geometry">
            <mxPoint x="4" as="offset" />
          </mxGeometry>
        </mxCell>
        <mxCell id="9cvGfTx-hKqikB6WAJd7-58" value="" style="endArrow=classic;html=1;rounded=0;dashed=1;exitX=0;exitY=0.5;exitDx=0;exitDy=0;entryX=1;entryY=0.5;entryDx=0;entryDy=0;" edge="1" parent="1" source="9cvGfTx-hKqikB6WAJd7-50" target="9cvGfTx-hKqikB6WAJd7-53">
          <mxGeometry relative="1" as="geometry">
            <mxPoint x="827" y="1390" as="sourcePoint" />
            <mxPoint x="827" y="1290" as="targetPoint" />
          </mxGeometry>
        </mxCell>
        <mxCell id="9cvGfTx-hKqikB6WAJd7-59" value="&amp;lt;extend&amp;gt;" style="edgeLabel;resizable=0;html=1;;align=center;verticalAlign=middle;" connectable="0" vertex="1" parent="9cvGfTx-hKqikB6WAJd7-58">
          <mxGeometry relative="1" as="geometry">
            <mxPoint x="4" as="offset" />
          </mxGeometry>
        </mxCell>
        <mxCell id="9cvGfTx-hKqikB6WAJd7-60" value="" style="endArrow=none;html=1;rounded=0;entryX=1;entryY=0.5;entryDx=0;entryDy=0;exitX=0.5;exitY=0.5;exitDx=0;exitDy=0;exitPerimeter=0;" edge="1" parent="1" source="9cvGfTx-hKqikB6WAJd7-36" target="9cvGfTx-hKqikB6WAJd7-50">
          <mxGeometry width="50" height="50" relative="1" as="geometry">
            <mxPoint x="1315" y="850" as="sourcePoint" />
            <mxPoint x="1120" y="700" as="targetPoint" />
          </mxGeometry>
        </mxCell>
      </root>
    </mxGraphModel>
  </diagram>
</mxfile>
